<svg xmlns="http://www.w3.org/2000/svg" width="51" height="39" viewBox="0 0 51 39">
    <path fill="#FFF" fill-rule="evenodd" d="M45.87 34.167V4.59H25.243v29.576H45.87zM45.87 0c1.217 0 2.29.463 3.222 1.388.93.925 1.396 1.993 1.396 3.203v29.576c0 1.21-.465 2.277-1.396 3.203-.931.925-2.005 1.388-3.223 1.388H4.62c-1.217 0-2.292-.463-3.223-1.388C.466 36.444 0 35.377 0 34.167V4.59c0-1.21.465-2.278 1.396-3.203C2.327.463 3.402 0 4.62 0h41.25zM27.5 23.917h16.113v3.416H27.5v-3.416zm0-11.318h16.113v3.417H27.5v-3.417zm0 5.659h16.113v3.416H27.5v-3.416z" opacity=".6"/>
</svg>
