<svg xmlns="http://www.w3.org/2000/svg" width="66" height="66" viewBox="0 0 66 66">
    <path fill="none" fill-rule="evenodd" stroke="#7CB072" stroke-width="2" d="M1 33C1 15.398 15.398 1 33 1s32 14.398 32 32-14.398 32-32 32S1 50.602 1 33zm29.9 20.7h4.2v-4.2h-4.2v4.2zm8.237-20.81l2.705-2.7c1.61-1.933 2.558-4.192 2.558-6.49 0-6.268-5.132-11.4-11.4-11.4-5.93 0-10.845 4.596-11.356 10.4h4.226c.49-3.493 3.507-6.2 7.13-6.2 3.962 0 7.2 3.238 7.2 7.2 0 2.155-.744 3.96-2.184 5.082l-3.661 3.966-.076.075C32.075 34.75 30.9 37.542 30.9 40.75v.55h4.219c.153-3.888 1.26-5.992 4.018-8.41z"/>
</svg>
